<svg xmlns="http://www.w3.org/2000/svg" xmlns:xlink="http://www.w3.org/1999/xlink" version="1.1" style="" xml:space="preserve" width="96.4" height="24.2"><rect id="backgroundrect" width="100%" height="100%" x="0" y="0" fill="none" stroke="none"/>
<style type="text/css">
	.st0{fill:#FFFFFF;}
</style>
<g style="" class="currentLayer">
	<title>Layer 1</title>
	<g id="svg_1" class="selected">
		<path id="svg_2" class="st0" d="M-7.629394218611197e-7,17.349999600648886 V2.449999600648879 C-7.629394218611197e-7,1.8499996006488821 0.1999992370605795,1.249999600648879 0.699999237060585,0.8499996006488829 S1.5999992370605836,0.24999960064887916 2.299999237060578,0.24999960064887916 h2.2 v17.1 H-7.629394218611197e-7 z"/>
		<path id="svg_3" class="st0" d="M5.8999992370605785,17.349999600648886 l0,-8.5 c0,-1.6 0.2,-3 0.7000000000000006,-4.1 s1.1,-2 2,-2.7 c0.8,-0.6000000000000006 1.7000000000000002,-1.1 2.8,-1.4 S13.59999923706058,0.24999960064887916 14.699999237060577,0.24999960064887916 c0.1,0 0.2,0 0.3000000000000003,0 s0.2,0 0.3000000000000003,0 v4.4 h-1.4 c-1.2,0 -2.1,0.3000000000000003 -2.7,0.9 c-0.6000000000000006,0.6000000000000006 -0.9,1.5 -0.9,2.8 v9 H5.8999992370605785 z"/>
		<path id="svg_4" class="st0" d="M27.59999923706058,16.349999600648886 c-0.9,0.5 -1.8,0.7000000000000006 -2.8,0.8 c-1,0.1 -1.8,0.2 -2.6,0.2 c-1.5,0 -2.8,-0.4 -3.9,-1.2 s-1.7000000000000002,-2.2 -1.7000000000000002,-3.9 s0.5,-2.9 1.5,-3.7 S20.399999237060577,7.249999600648879 21.999999237060578,7.049999600648879 c0.2,0 0.5,0 0.8,-0.1 s0.6000000000000006,-0.1 1,-0.2 c1.8,-0.3000000000000003 2.8,-0.8 2.8,-1.6 c0,-0.6000000000000006 -0.3000000000000003,-1 -1,-1.2 c-0.6000000000000006,-0.2 -1.2,-0.3000000000000003 -1.8,-0.3000000000000003 s-1.1,0.1 -1.6,0.2 c-0.5,0.2 -0.8,0.5 -1,0.9 H16.999999237060578 c0.2,-1.3 0.8,-2.4 1.8,-3.1 c1.1,-1 2.7,-1.4 4.8,-1.4 c2.3,0 4.1,0.4 5.3,1.2 c1.2,0.8 1.8,2 1.8,3.4 v5.6 c0,1.7000000000000002 -0.3000000000000003,2.9 -0.9,3.8 C29.199999237060577,15.249999600648879 28.499999237060578,15.949999600648878 27.59999923706058,16.349999600648886 zM26.59999923706058,8.84999960064888 c-0.6000000000000006,0.3000000000000003 -1.4,0.6000000000000006 -2.4,0.8 l-1.4,0.3000000000000003 c-0.8,0.2 -1.3,0.5 -1.6,0.8 c-0.3000000000000003,0.5 -0.4,0.9 -0.4,1.4 c0,0.6000000000000006 0.2,1.1 0.6000000000000006,1.5 c0.4,0.3000000000000003 0.9,0.5 1.6,0.5 c1.2,0 2.1,-0.3000000000000003 2.8,-1 c0.7000000000000006,-0.7000000000000006 1,-1.6 1,-2.8 V8.84999960064888 C26.79999923706058,8.84999960064888 26.59999923706058,8.84999960064888 26.59999923706058,8.84999960064888 z"/>
		<path id="svg_5" class="st0" d="M47.09999923706058,17.349999600648886 h-2.2 c-0.6000000000000006,0 -1.1,-0.2 -1.5,-0.6000000000000006 s-0.6000000000000006,-0.9 -0.6000000000000006,-1.5 V6.749999600648879 c0,-1 -0.3000000000000003,-1.7000000000000002 -0.9,-2.2 c-0.6000000000000006,-0.5 -1.3,-0.7000000000000006 -2,-0.7000000000000006 s-1.4,0.2 -2,0.7000000000000006 C37.299999237060575,4.949999600648879 36.99999923706058,5.749999600648879 36.99999923706058,6.749999600648879 v10.6 h-4.4 V7.549999600648881 c0,-2.8 0.7000000000000006,-4.7 2.2,-5.7 s3.1,-1.5 4.9,-1.6 c1.8,0 3.5,0.5 5.1,1.4 c1.5,1 2.3,2.9 2.3,5.8 V17.349999600648886 z"/>
		<path id="svg_6" class="st0" d="M60.09999923706058,16.04999960064888 v-1.1 c-0.8,1.2 -1.8,1.9 -3,2.2 c-1.3,0.3000000000000003 -2.5,0.2 -3.8,-0.3000000000000003 c-1.3,-0.5 -2.3,-1.4 -3.2,-2.8 s-1.3,-3.1 -1.3,-5.2 c0,-2.6 0.6000000000000006,-4.6 1.8,-6.2 S53.69999923706059,0.24999960064887916 56.299999237060575,0.24999960064887916 c2,0 3.9,0.5 5.6,1.6 c1.7000000000000002,1.1 2.6,3.1 2.6,5.9 v8.7 c0,2.9 -0.9,4.8 -2.6,5.9 c-1.7000000000000002,1.1 -3.6,1.6 -5.6,1.6 c-3.8,0 -6.2,-1.8 -7.1,-5.3 h4.6 c0.3000000000000003,0.6000000000000006 0.8,1 1.5,1.3 s1.4,0.4 2.1,0.3000000000000003 c0.7000000000000006,-0.1 1.3,-0.6000000000000006 1.9,-1.2 C59.69999923706059,18.349999600648886 59.99999923706058,17.349999600648886 60.09999923706058,16.04999960064888 zM52.899999237060584,8.949999600648878 c0,2.9 0.8,4.5 2.5,4.7 c1.7000000000000002,0.3000000000000003 2.9,-0.1 3.7,-1.2 c0.4,-0.5 0.6000000000000006,-1.2 0.8,-2.2 s0.2,-1.9 0,-2.9 c-0.1,-1 -0.5,-1.8 -1,-2.6 s-1.3,-1.1 -2.4,-1.1 c-1.4,0 -2.4,0.5 -2.9,1.6 C53.19999923706058,6.449999600648879 52.899999237060584,7.649999600648879 52.899999237060584,8.949999600648878 z"/>
		<path id="svg_7" class="st0" d="M76.99999923706058,16.349999600648886 c-0.9,0.5 -1.8,0.7000000000000006 -2.8,0.8 c-1,0.1 -1.8,0.2 -2.6,0.2 c-1.5,0 -2.8,-0.4 -3.9,-1.2 S65.99999923706058,14.04999960064888 65.99999923706058,12.249999600648879 s0.5,-2.9 1.5,-3.7 s2.3,-1.3 3.9,-1.5 c0.2,0 0.5,0 0.8,-0.1 c0.3000000000000003,-0.1 0.6000000000000006,-0.1 1,-0.2 C74.99999923706058,6.449999600648879 75.99999923706058,5.949999600648879 75.99999923706058,5.149999600648879 c0,-0.6000000000000006 -0.3000000000000003,-1 -1,-1.2 c-0.6000000000000006,-0.2 -1.2,-0.3000000000000003 -1.8,-0.3000000000000003 c-0.6000000000000006,0 -1.1,0.1 -1.6,0.2 c-0.5,0.2 -0.8,0.5 -1,0.9 h-4.2 c0.2,-1.3 0.8,-2.4 1.8,-3.1 C69.29999923706058,0.6499996006488828 70.89999923706058,0.24999960064887916 72.99999923706058,0.24999960064887916 c2.3,0 4.1,0.4 5.3,1.2 c1.2,0.8 1.8,2 1.8,3.4 v5.6 c0,1.7000000000000002 -0.3000000000000003,2.9 -0.9,3.8 C78.49999923706058,15.249999600648879 77.79999923706058,15.949999600648878 76.99999923706058,16.349999600648886 zM75.99999923706058,8.84999960064888 c-0.6000000000000006,0.3000000000000003 -1.4,0.6000000000000006 -2.4,0.8 l-1.4,0.3000000000000003 c-0.8,0.2 -1.3,0.5 -1.6,0.8 c-0.4,0.5 -0.6000000000000006,1 -0.6000000000000006,1.4 c0,0.6000000000000006 0.2,1.1 0.6000000000000006,1.5 c0.4,0.3000000000000003 0.9,0.5 1.6,0.5 c1.2,0 2.1,-0.3000000000000003 2.8,-1 c0.7000000000000006,-0.7000000000000006 1,-1.6 1,-2.8 V8.84999960064888 z"/>
		<path id="svg_8" class="st0" d="M96.39999923706058,17.349999600648886 h-2.2 c-0.6000000000000006,0 -1.1,-0.2 -1.5,-0.6000000000000006 s-0.6000000000000006,-0.9 -0.6000000000000006,-1.5 V6.749999600648879 c0,-1 -0.3000000000000003,-1.7000000000000002 -0.9,-2.2 s-1.3,-0.7000000000000006 -2,-0.7000000000000006 s-1.4,0.2 -2,0.7000000000000006 s-0.9,1.2 -0.9,2.2 v10.6 h-4.4 V7.549999600648881 c0,-2.8 0.7000000000000006,-4.7 2.2,-5.7 S87.19999923706058,0.3499996006488795 88.99999923706058,0.24999960064887916 c1.8,0 3.5,0.5 5.1,1.4 c1.5,1 2.3,2.9 2.3,5.8 C96.39999923706058,7.449999600648879 96.39999923706058,17.349999600648886 96.39999923706058,17.349999600648886 z"/>
	</g>
</g>
</svg>